<?xml version="1.0" encoding="utf-8"?>
<!-- Generator: Adobe Illustrator 19.0.0, SVG Export Plug-In . SVG Version: 6.00 Build 0)  -->
<svg version="1.1" id="All_glyphs" xmlns="http://www.w3.org/2000/svg" xmlns:xlink="http://www.w3.org/1999/xlink" x="0px" y="0px"
	 viewBox="0 0 106.5 105" style="enable-background:new 0 0 106.5 105;" xml:space="preserve">
<style type="text/css">
	.st0{fill:#FFFFFF;}
</style>
<path class="st0" d="M22.9,87.9c0,5.5,4.5,10,10,10c5.5,0,10-4.5,10-10c0-5.5-4.5-10-10-10C27.4,77.9,22.9,82.4,22.9,87.9z
	 M72.9,87.9c0,5.5,4.5,10,10,10c5.5,0,10-4.5,10-10c0-5.5-4.5-10-10-10C77.4,77.9,72.9,82.4,72.9,87.9z M40.6,64.2L96,48.4
	c1.1-0.3,1.9-1.4,1.9-2.5V18.4H27.4V9.9c0-1.1-0.9-2-2-2H9.9c-1.1,0-2,0.9-2,2v8h9.7l9.8,45.3l0.9,4.7v7.5c0,1.1,0.9,2,2,2h2.5h50
	h13c1.1,0,2-0.9,2-2v-7.5H41.7C35.9,67.9,35.8,65.6,40.6,64.2z"/>
</svg>
