<?xml version="1.0" encoding="utf-8"?>
<!-- Generator: Adobe Illustrator 19.0.0, SVG Export Plug-In . SVG Version: 6.00 Build 0)  -->
<svg version="1.1" id="Layer_3" xmlns="http://www.w3.org/2000/svg" xmlns:xlink="http://www.w3.org/1999/xlink" x="0px" y="0px"
	 viewBox="0 0 90 65.3" style="enable-background:new 0 0 90 65.3;" xml:space="preserve">
<style type="text/css">
	.st0{fill:#E89606;}
</style>
<g>
	<path class="st0" d="M3,8.6C5.4,9.9,39.2,28,40.5,28.7c1.3,0.7,2.9,1,4.5,1s3.3-0.3,4.5-1C50.8,28,84.6,9.9,87,8.6
		c2.4-1.3,4.8-5.4,0.3-5.4H2.7C-1.8,3.1,0.5,7.3,3,8.6z M88.1,18.6C85.3,20,51.2,37.8,49.5,38.7c-1.7,0.9-2.9,1-4.5,1
		s-2.8-0.1-4.5-1C38.8,37.8,4.7,20,1.9,18.6c-2-1-1.9,0.2-1.9,1.1s0,36.7,0,36.7c0,2.1,2.8,4.8,5,4.8H85c2.2,0,5-2.7,5-4.8
		c0,0,0-35.8,0-36.7S90,17.6,88.1,18.6z"/>
</g>
</svg>
