<?xml version="1.0" encoding="utf-8"?>
<!-- Generator: Adobe Illustrator 19.0.0, SVG Export Plug-In . SVG Version: 6.00 Build 0)  -->
<svg version="1.1" id="All_glyphs" xmlns="http://www.w3.org/2000/svg" xmlns:xlink="http://www.w3.org/1999/xlink" x="0px" y="0px"
	 viewBox="0 0 105 106" style="enable-background:new 0 0 105 106;" xml:space="preserve">
<style type="text/css">
	.st0{fill:#58293C;}
</style>
<path class="st0" d="M47.7,39.9c-1.2-4.2-3.2-5.5-6.2-5.5c-0.3,0-0.7,0-1,0.1c-1.3,0.4-2.4,1.5-2.9,3.1C37,39.3,36.9,41,37.4,43
	c0.9,3.5,3.4,6,5.9,6c0.3,0,0.7,0,1-0.1C47.1,48.1,48.8,43.9,47.7,39.9z M52.2,5.5c-26.5,0-48,21.5-48,48c0,26.5,21.5,48,48,48
	c26.5,0,48-21.5,48-48C100.2,27,78.7,5.5,52.2,5.5z M49.4,74.1c-3,1.5-6.3,1.6-7.5,1.6c-0.2,0-0.4,0-0.4,0c0,0-0.1,0-0.2,0
	c-2,0-11.7-0.5-11.7-9.3c0-8.7,10.6-9.4,13.9-9.4l0.1,0c-1.9-2.5-1.5-5-1.5-5c-0.2,0-0.4,0-0.7,0c-1.2,0-3.6-0.2-5.6-1.5
	c-2.5-1.6-3.7-4.3-3.7-8.1c0-10.7,11.6-11.1,11.7-11.1h11.6v0.3c0,1.3-2.3,1.5-3.9,1.8c-0.5,0.1-1.6,0.2-1.9,0.3
	c2.9,1.6,3.4,4,3.4,7.7c0,4.2-1.6,6.4-3.4,8c-1.1,1-1.9,1.7-1.9,2.7c0,1,1.2,2,2.5,3.2c2.2,1.9,5.2,4.6,5.2,9.1
	C55.3,68.9,53.3,72.2,49.4,74.1z M74.8,53.4h-7.6V61h-4.8v-7.6h-7.6v-4.8h7.6V41h4.8v7.6h7.6V53.4z M43.3,59.2c-0.3,0-0.5,0-0.8,0
	c-2.2,0.2-4.3,1-5.8,2.3c-1.5,1.3-2.2,3-2.1,4.7c0.2,3.5,4,5.6,8.7,5.3c4.6-0.3,7.6-3,7.4-6.5C50.5,61.8,47.6,59.2,43.3,59.2z"/>
</svg>
