<?xml version="1.0" encoding="utf-8"?>
<!-- Generator: Adobe Illustrator 19.0.0, SVG Export Plug-In . SVG Version: 6.00 Build 0)  -->
<svg version="1.1" id="All_glyphs" xmlns="http://www.w3.org/2000/svg" xmlns:xlink="http://www.w3.org/1999/xlink" x="0px" y="0px"
	 viewBox="0 0 106 105" style="enable-background:new 0 0 106 105;" xml:space="preserve">
<style type="text/css">
	.st0{fill:#58293C;}
</style>
<path class="st0" d="M53.2,4.5c-26.5,0-48,21.5-48,48c0,26.5,21.5,48,48,48c26.5,0,48-21.5,48-48C101.2,26,79.7,4.5,53.2,4.5z
	 M41.4,72.4h-9.7V41.1h9.7V72.4z M36.5,37.3c-3.1,0-5.1-2.2-5.1-4.9c0-2.8,2-4.9,5.2-4.9c3.1,0,5.1,2.1,5.1,4.9
	C41.8,35.1,39.8,37.3,36.5,37.3z M76.9,72.4h-9.7V55c0-4-1.4-6.8-4.9-6.8c-2.7,0-4.3,1.9-5,3.6C57,52.5,57,53.4,57,54.3v18h-9.7
	V51.1c0-3.9-0.1-7.2-0.3-10h8.4l0.4,4.3h0.2c1.3-2,4.4-5.1,9.7-5.1c6.4,0,11.2,4.3,11.2,13.5V72.4z"/>
</svg>
