<?xml version="1.0" encoding="utf-8"?>
<!-- Generator: Adobe Illustrator 19.0.0, SVG Export Plug-In . SVG Version: 6.00 Build 0)  -->
<svg version="1.1" id="Layer_1" xmlns="http://www.w3.org/2000/svg" xmlns:xlink="http://www.w3.org/1999/xlink" x="0px" y="0px"
	 viewBox="47.8 91 318 105.9" style="enable-background:new 47.8 91 318 105.9;" xml:space="preserve">
<style type="text/css">
	.st0{fill:#E5C48E;}
</style>
<g>
	<g>
		<g>
			<path class="st0" d="M100.7,91c29.3,0,53,23.7,53,53c0,29.2-23.7,53-53,53c-29.3,0-53-23.7-53-53C47.8,114.7,71.5,91,100.7,91
				 M100.7,98c-25.4,0-46,20.6-46,46c0,25.4,20.6,46,46,46c25.4,0,46-20.6,46-46C146.7,118.6,126.1,98,100.7,98L100.7,98z"/>
		</g>
		<g>
			<path class="st0" d="M121,121.4c-1.5-3.4-3.5-6.4-6.1-9c-2.6-2.6-5.6-4.6-9.1-6.1c-3.5-1.5-7.1-2.3-11-2.3c-3.9,0-7.6,0.8-11,2.3
				c-3.4,1.5-6.4,3.5-8.9,6.1c-2.5,2.6-4.5,5.6-6,9c-1.5,3.4-2.2,7.1-2.2,10.9v0.2v12v30.8L78.2,187v-23.8v-30.7v-0.2
				c0-2.3,0.4-4.4,1.3-6.4c0.9-2,2.1-3.8,3.6-5.3c1.5-1.5,3.3-2.7,5.3-3.6c2-0.9,4.2-1.3,6.5-1.3c2.3,0,4.4,0.4,6.5,1.3
				c2,0.9,3.8,2.1,5.3,3.6c1.5,1.5,2.7,3.3,3.6,5.3c0.9,2,1.3,4.1,1.3,6.4c0,2.3-0.4,4.5-1.3,6.6c-0.9,2-2.1,3.8-3.6,5.3
				c-1.5,1.5-3.3,2.7-5.3,3.6c-2,0.9-4.2,1.3-6.5,1.3c-0.2,0-0.4,0-0.6,0c-0.2,0.4-0.4,0.8-0.6,1.3c-0.7,1.7-1.1,3.5-1.1,5.4
				c0,1.7,0.3,3.3,0.9,4.9c0.5,0,1,0,1.4,0c3.8,0,7.5-0.7,11-2.2c3.5-1.5,6.5-3.5,9.1-6.1c2.6-2.6,4.6-5.6,6.1-9
				c1.5-3.4,2.3-7.1,2.3-11C123.3,128.5,122.5,124.8,121,121.4z"/>
			<path class="st0" d="M123.1,101v54.7c0,2.3-0.4,4.4-1.3,6.4c-0.9,2-2.1,3.8-3.6,5.3c-1.5,1.5-3.3,2.7-5.3,3.6
				c-2,0.9-4.2,1.3-6.4,1.3c-2.3,0-4.4-0.4-6.4-1.3c-2-0.9-3.8-2.1-5.3-3.6c-1.5-1.5-2.7-3.3-3.6-5.3c-0.9-2-1.3-4.1-1.3-6.4
				c0-2.3,0.4-4.4,1.3-6.5c0.9-2,2.1-3.8,3.6-5.3c1.5-1.5,3.3-2.7,5.3-3.6c2-0.9,4.1-1.3,6.4-1.3c0.3,0,0.5,0,0.7,0
				c0.2-0.4,0.4-0.8,0.6-1.3c0.7-1.7,1.1-3.5,1.1-5.5c0-1.8-0.3-3.4-0.9-5c-0.5,0-1-0.1-1.5-0.1c-3.6,0-7,0.6-10.2,1.9
				c-3.2,1.3-6.1,3.1-8.6,5.3c-2.5,2.3-4.6,4.9-6.2,8c-1.6,3.1-2.6,6.3-3,9.8c-0.2,0.6-0.2,1.2-0.2,1.7v1.7c0,3.9,0.7,7.6,2.2,11
				c1.5,3.4,3.5,6.4,6.1,9c2.6,2.6,5.6,4.6,9,6.1c3.4,1.5,7.1,2.2,11,2.2c3.9,0,7.6-0.7,11.1-2.2c3.5-1.5,6.5-3.5,9.1-6.1
				c2.6-2.6,4.6-5.6,6.1-9c1.5-3.4,2.2-7.1,2.2-11v-43.1L123.1,101z"/>
		</g>
	</g>
	<g>
		<path class="st0" d="M168.9,142.7v-2.2c1.2-0.1,1.9-0.3,2.4-0.7c0.4-0.4,0.6-1.2,0.6-2.4v-16.2c0-1.1-0.2-1.9-0.6-2.3
			c-0.4-0.4-1.2-0.6-2.4-0.8V116h10.8c3.4,0,6,0.7,7.9,2c1.8,1.3,2.7,3.3,2.7,5.8c0,2.1-0.8,3.8-2.5,5.2c-1.6,1.3-3.8,2-6.4,2
			c-0.8,0-1.4-0.1-1.6-0.2c-0.2-0.1-0.3-0.4-0.3-0.9v-0.6c0-0.4,0.2-0.6,0.7-0.6c0.5,0,0.9-0.1,1.2-0.2c1-0.3,1.7-0.8,2.2-1.6
			c0.5-0.8,0.7-1.8,0.7-3.2c0-1.8-0.4-3.1-1.2-4c-0.8-0.9-1.9-1.3-3.5-1.3c-0.6,0-0.9,0.1-1.1,0.2c-0.2,0.1-0.3,0.3-0.3,0.7v18.1
			c0,1.1,0.2,1.9,0.7,2.3c0.4,0.4,1.2,0.7,2.4,0.7v2.2H168.9L168.9,142.7z"/>
		<path class="st0" d="M202,137.2c0,1.3,0.2,2.1,0.6,2.5c0.4,0.4,1.2,0.6,2.4,0.7v2.2h-12.3v-2.2c1.2-0.1,2-0.4,2.4-0.8
			c0.4-0.4,0.6-1.2,0.6-2.5v-15.9c0-1.2-0.2-1.9-0.6-2.3c-0.4-0.4-1.2-0.6-2.4-0.8V116h11.1c2.2,0,3.8,0.1,5,0.4
			c1.2,0.3,2.2,0.7,3.1,1.3c1,0.7,1.7,1.5,2.2,2.4c0.5,0.9,0.7,1.9,0.7,3c0,1.6-0.5,2.9-1.4,4.1c-1,1.1-2.3,1.9-4,2.3l5,7.8
			c0.6,1,1.2,1.7,1.8,2.2c0.6,0.5,1.2,0.9,1.9,1v2.2h-6.9c-0.3,0-0.5,0-0.7-0.1c-0.2-0.1-0.3-0.2-0.4-0.3l-6.8-11.5H202L202,137.2
			L202,137.2z M202,128.3c0,0,0.1,0,0.1,0c0.5,0,0.8,0.1,1.1,0.1c1.6,0,2.8-0.4,3.6-1.3c0.8-0.9,1.2-2.1,1.2-3.8
			c0-1.6-0.4-2.8-1.2-3.6c-0.8-0.8-2.1-1.2-3.8-1.2c-0.3,0-0.6,0.1-0.8,0.2c-0.2,0.1-0.2,0.3-0.2,0.6V128.3z"/>
		<path class="st0" d="M219.8,142.7v-2.2c1.2-0.1,2-0.4,2.4-0.8c0.4-0.4,0.6-1.2,0.6-2.3v-16.1c0-1.2-0.2-1.9-0.6-2.3
			c-0.4-0.4-1.2-0.6-2.4-0.8V116h20.9v5.5h-2c-0.5-1.2-1.3-2.1-2.2-2.6c-1-0.5-2.2-0.8-3.8-0.8c-1.4,0-2.4,0.1-2.8,0.3
			c-0.4,0.2-0.6,0.7-0.6,1.6v7.4h2.8c1.2,0,2.2-0.2,2.8-0.7c0.6-0.5,1-1.3,1.2-2.4h2.2v8.9h-2.2c-0.1-1.1-0.5-2-1.2-2.6
			c-0.7-0.6-1.6-0.9-2.8-0.9h-2.8v7.3c0,1.2,0.2,2,0.7,2.5c0.5,0.5,1.4,0.7,2.7,0.7c1.7,0,3.2-0.4,4.6-1.2c1.4-0.8,2.5-1.9,3.4-3.4
			h2.1l-1.6,7.2L219.8,142.7L219.8,142.7z"/>
		<path class="st0" d="M245.9,141.5v-6.6h2.1c0.4,1.8,1.2,3.3,2.4,4.3c1.2,1,2.7,1.5,4.4,1.5c1.3,0,2.4-0.4,3.2-1.1
			c0.8-0.7,1.3-1.6,1.3-2.7c0-1.5-1.7-3.2-5.1-5.1c-0.9-0.5-1.6-0.9-2.1-1.2c-2.4-1.4-4-2.7-4.9-3.8s-1.3-2.5-1.3-4.1
			c0-2.3,0.9-4.2,2.6-5.5c1.7-1.3,4-2,7-2c1.4,0,2.8,0.2,4,0.6c1.3,0.4,2.6,1,3.8,1.8v5.3h-1.9c-0.4-1.7-1.2-3-2.3-4
			c-1.1-1-2.5-1.5-4-1.5c-1.2,0-2.2,0.3-2.9,0.9c-0.8,0.6-1.1,1.4-1.1,2.4c0,1.5,1.7,3.1,5.2,4.9l0.1,0.1c0.2,0.1,0.4,0.2,0.8,0.4
			c1.9,1,3.4,1.9,4.3,2.6c1,0.8,1.7,1.7,2.3,2.7c0.5,1,0.8,2,0.8,3.1c0,2.6-0.9,4.6-2.6,6.1c-1.7,1.5-4,2.3-6.9,2.3
			c-1.2,0-2.6-0.1-4.1-0.4C249.4,142.4,247.7,142,245.9,141.5z"/>
		<path class="st0" d="M284.5,135.8v1.2c0,0.7,0,1.2,0.1,1.5c0,0.3,0.1,0.6,0.3,0.8c0.3,0.4,0.7,0.7,1.3,1c0.6,0.2,1.4,0.3,2.3,0.3
			h0.2v2h-14.8v-2h0.2c0.9,0,1.7-0.1,2.3-0.3c0.6-0.2,1-0.5,1.3-1c0.1-0.2,0.2-0.4,0.3-0.8c0.1-0.3,0.1-0.8,0.1-1.5v-1.2v-17.4h-2.6
			c-1.5,0-2.7,0.4-3.5,1.1c-0.8,0.7-1.5,2-2.1,3.7h-2.1l0.8-7.2h25.8l0.6,7.2h-2c-0.4-1.8-1.1-3-2-3.7c-0.9-0.7-2.2-1.1-3.9-1.1
			h-2.4L284.5,135.8L284.5,135.8z"/>
		<path class="st0" d="M296.9,142.7v-2.2c1.2-0.1,2-0.4,2.4-0.8c0.4-0.4,0.6-1.2,0.6-2.3v-16.1c0-1.2-0.2-1.9-0.6-2.3
			c-0.4-0.4-1.2-0.6-2.4-0.8V116h12.4v2.2c-1.2,0.1-2,0.4-2.4,0.8c-0.4,0.4-0.6,1.2-0.6,2.3v16.1c0,1.2,0.2,1.9,0.6,2.3
			c0.4,0.4,1.2,0.6,2.4,0.8v2.2H296.9z"/>
		<path class="st0" d="M336.9,141.1c-3.5,0.9-6,1.4-7.5,1.7c-1.5,0.3-2.7,0.4-3.8,0.4c-4.2,0-7.6-1.3-10.1-3.8
			c-2.6-2.5-3.9-5.8-3.9-9.9c0-2,0.4-3.9,1.1-5.6c0.7-1.7,1.8-3.2,3.2-4.6c1.4-1.3,2.9-2.2,4.7-2.9c1.8-0.7,3.6-1,5.6-1
			c1.8,0,3.5,0.2,5.3,0.6c1.8,0.4,3.6,1.1,5.4,2v5.7h-1.9c-1-2-2.2-3.5-3.5-4.6c-1.4-1-2.9-1.6-4.5-1.6c-2.5,0-4.5,1-6,2.9
			c-1.5,2-2.3,4.6-2.3,7.8c0,3.6,0.8,6.4,2.4,8.7c1.6,2.2,3.6,3.3,6.1,3.3c0.5,0,1.1-0.1,1.7-0.2c0.6-0.1,1.2-0.3,1.9-0.6v-5.1
			c0-1.2-0.2-2.1-0.6-2.4c-0.4-0.4-1.2-0.6-2.4-0.6v-2h12.7v2c-1.3,0.1-2.3,0.3-2.7,0.8c-0.5,0.4-0.7,1.2-0.7,2.2L336.9,141.1
			L336.9,141.1z"/>
		<path class="st0" d="M342.8,142.7v-2.2c1.2-0.1,2-0.4,2.4-0.8c0.4-0.4,0.6-1.2,0.6-2.3v-16.1c0-1.2-0.2-1.9-0.6-2.3
			c-0.4-0.4-1.2-0.6-2.4-0.8V116h20.9v5.5h-2c-0.5-1.2-1.3-2.1-2.2-2.6c-1-0.5-2.2-0.8-3.8-0.8c-1.4,0-2.4,0.1-2.8,0.3
			c-0.4,0.2-0.6,0.7-0.6,1.6v7.4h2.8c1.2,0,2.2-0.2,2.8-0.7c0.6-0.5,1-1.3,1.2-2.4h2.2v8.9h-2.2c-0.1-1.1-0.5-2-1.2-2.6
			c-0.7-0.6-1.6-0.9-2.8-0.9h-2.8v7.3c0,1.2,0.2,2,0.7,2.5c0.5,0.5,1.4,0.7,2.7,0.7c1.7,0,3.2-0.4,4.6-1.2c1.4-0.8,2.5-1.9,3.4-3.4
			h2.1l-1.6,7.2L342.8,142.7L342.8,142.7z"/>
	</g>
	<g>
		<path class="st0" d="M168.4,173.7v-0.8c1-0.1,1.8-0.3,2.2-0.7c0.4-0.4,0.6-1.1,0.6-2V158c0-1-0.2-1.6-0.6-2
			c-0.4-0.4-1.1-0.6-2.2-0.7v-0.8h8.2c3.6,0,6.3,0.8,8.3,2.5c2,1.7,3,4,3,7c0,1.4-0.3,2.8-0.8,4c-0.5,1.2-1.3,2.3-2.3,3.2
			c-1,0.9-2.1,1.5-3.3,1.9c-1.2,0.4-2.6,0.6-4.2,0.6H168.4L168.4,173.7z M173.8,170.2c0,0.9,0.3,1.6,0.8,2.1
			c0.5,0.5,1.4,0.7,2.5,0.7c2.3,0,4.2-0.8,5.6-2.5c1.5-1.7,2.2-3.8,2.2-6.4c0-2.6-0.8-4.7-2.5-6.3c-1.7-1.6-3.9-2.4-6.7-2.4
			c-0.5,0-0.9,0-1.1,0.1c-0.3,0-0.6,0.1-0.8,0.2V170.2z"/>
		<path class="st0" d="M208.6,173.7v-0.8c1-0.1,1.8-0.3,2.2-0.7c0.4-0.4,0.6-1.1,0.6-2V158c0-1-0.2-1.6-0.6-2
			c-0.4-0.4-1.1-0.6-2.2-0.7v-0.8h6.2c2.9,0,5.1,0.4,6.5,1.2c1.4,0.8,2.1,2,2.1,3.7c0,1.2-0.4,2.3-1.3,3.2c-0.9,0.9-2.1,1.4-3.5,1.6
			v0.1c0.3,0.2,0.6,0.4,0.9,0.7c0.3,0.3,0.7,0.7,1.1,1.2l4.6,5.5c0.3,0.4,0.6,0.6,1,0.9c0.4,0.2,0.7,0.4,1,0.4v0.8h-3.6l-5.9-7.2
			c-0.7-0.8-1.3-1.4-1.8-1.8c-0.5-0.3-1-0.5-1.6-0.5c-0.1,0-0.2,0-0.2,0c0,0-0.1,0-0.1,0l0,5.9c0,0.9,0.2,1.6,0.6,2
			c0.4,0.4,1.1,0.6,2,0.7v0.8H208.6L208.6,173.7z M214,163.5c0.3,0,0.6,0,0.8,0c0.2,0,0.3,0,0.5,0c1.7,0,3-0.3,3.9-1
			c0.9-0.7,1.3-1.7,1.3-3c0-1.3-0.4-2.4-1.3-3.1c-0.9-0.7-2.1-1.1-3.7-1.1c-0.7,0-1.1,0-1.2,0.1c-0.1,0.1-0.2,0.2-0.2,0.5L214,163.5
			z"/>
		<path class="st0" d="M246,173.7v-0.8c1-0.1,1.8-0.3,2.2-0.7c0.4-0.4,0.6-1.1,0.6-2V158c0-1-0.2-1.6-0.6-2
			c-0.4-0.4-1.1-0.6-2.2-0.7v-0.8h8.2v0.8c-1,0.1-1.8,0.3-2.2,0.7c-0.4,0.4-0.6,1.1-0.6,2v12.2c0,1,0.2,1.6,0.6,2
			c0.4,0.4,1.1,0.6,2.2,0.7v0.8H246z"/>
		<path class="st0" d="M277.9,158.8v10.9c0,1.2,0.2,2,0.7,2.5c0.4,0.5,1.2,0.7,2.2,0.8v0.8h-6.5v-0.8c1-0.1,1.7-0.3,2.2-0.7
			c0.4-0.4,0.6-1.1,0.6-2v-12.6c-0.7-0.9-1.2-1.5-1.7-1.8c-0.5-0.4-0.9-0.5-1.4-0.5h-0.2v-0.8h3.8l12.8,15.1v-11.1
			c0-1.2-0.2-2-0.7-2.5c-0.4-0.5-1.2-0.7-2.2-0.8v-0.8h6.5v0.8c-1,0.1-1.8,0.3-2.2,0.7c-0.4,0.4-0.6,1.1-0.6,2v12.1
			c0,0.7,0,1.5,0.1,2.1c0.1,0.7,0.2,1.3,0.3,1.9h-0.7L277.9,158.8z"/>
		<path class="st0" d="M313.7,173.7v-0.8c1-0.1,1.8-0.3,2.2-0.7c0.4-0.4,0.6-1.1,0.6-2V158c0-1-0.2-1.6-0.6-2
			c-0.4-0.4-1.1-0.6-2.2-0.7v-0.8h8v0.8c-1,0.1-1.7,0.3-2.1,0.7c-0.4,0.4-0.6,1-0.6,2v6l4.3-3.9l0.5-0.4c1.7-1.6,2.6-2.7,2.6-3.2
			c0-0.4-0.1-0.6-0.4-0.8c-0.3-0.2-0.7-0.3-1.3-0.3v-0.8h7v0.8h-0.1c-0.6,0-1.3,0.2-2,0.6c-0.7,0.4-1.8,1.3-3.4,2.7l-4.4,4l8.3,8.6
			c0.5,0.6,1.1,1,1.6,1.2c0.5,0.3,1.2,0.4,1.8,0.5v0.8h-4.5l-9.1-9.7l-1,0.9v5.2c0,1,0.2,1.6,0.6,2c0.4,0.4,1.1,0.6,2.1,0.7v0.8
			H313.7L313.7,173.7z"/>
		<path class="st0" d="M353.3,167.7h0.7c0.4,1.9,1,3.2,1.8,4.1c0.8,0.9,1.8,1.4,3.1,1.4c1,0,1.8-0.3,2.4-0.9
			c0.6-0.6,0.9-1.5,0.9-2.5c0-0.8-0.2-1.5-0.6-2.1c-0.4-0.6-1.4-1.4-3-2.4l-0.1-0.1c-3.5-2.3-5.2-4.3-5.2-6.1c0-0.6,0.1-1.3,0.4-1.9
			c0.3-0.6,0.6-1.2,1.1-1.7c0.4-0.5,1-0.8,1.6-1.1c0.6-0.2,1.3-0.4,2.1-0.4c0.7,0,1.4,0.1,2.2,0.4c0.8,0.2,1.7,0.6,2.8,1.1v4h-0.7
			c-0.2-1.5-0.6-2.6-1.3-3.4c-0.7-0.8-1.6-1.2-2.8-1.2c-0.9,0-1.7,0.3-2.4,1c-0.6,0.6-1,1.4-1,2.3c0,1.2,1.4,2.7,4.2,4.5
			c0.5,0.3,0.9,0.6,1.2,0.8c1.3,0.9,2.3,1.8,2.8,2.5c0.5,0.8,0.8,1.6,0.8,2.6c0,1.6-0.6,2.9-1.7,3.9c-1.1,1-2.5,1.5-4.3,1.5
			c-0.9,0-1.8-0.1-2.6-0.4c-0.9-0.3-1.7-0.7-2.5-1.3L353.3,167.7L353.3,167.7z"/>
	</g>
	<g>
		<path class="st0" d="M158.6,149c18.2,0.4,51.9,0.9,106.2,0.9c55.3,0,89.3-0.5,107.3-0.9c-18.6-0.3-53.7-0.6-107.3-0.6
			C208.5,148.4,176,148.7,158.6,149z"/>
	</g>
</g>
</svg>
