<?xml version="1.0" encoding="utf-8"?>
<!-- Generator: Adobe Illustrator 19.0.0, SVG Export Plug-In . SVG Version: 6.00 Build 0)  -->
<svg version="1.1" id="Layer_3" xmlns="http://www.w3.org/2000/svg" xmlns:xlink="http://www.w3.org/1999/xlink" x="0px" y="0px"
	 viewBox="0 0 58 98" style="enable-background:new 0 0 58 98;" xml:space="preserve">
<style type="text/css">
	.st0{fill:#FFFFFF;}
</style>
<g>
	<path class="st0" d="M48,0H10C4.5,0,0,4.5,0,10v78c0,5.5,4.5,10,10,10h38c5.5,0,10-4.5,10-10V10C58,4.5,53.5,0,48,0z M29,94
		c-3.9,0-7-2.2-7-5c0-2.8,3.1-5,7-5c3.9,0,7,2.2,7,5C36,91.8,32.9,94,29,94z M50,79H8V13h42V79z"/>
</g>
</svg>
