<?xml version="1.0" encoding="utf-8"?>
<!-- Generator: Adobe Illustrator 19.0.0, SVG Export Plug-In . SVG Version: 6.00 Build 0)  -->
<svg version="1.1" id="All_glyphs" xmlns="http://www.w3.org/2000/svg" xmlns:xlink="http://www.w3.org/1999/xlink" x="0px" y="0px"
	 viewBox="0 0 92.8 90" style="enable-background:new 0 0 92.8 90;" xml:space="preserve">
<style type="text/css">
	.st0{fill:#FFFFFF;}
</style>
<path class="st0" d="M15,80c0,5.5,4.5,10,10,10c5.5,0,10-4.5,10-10c0-5.5-4.5-10-10-10C19.5,70,15,74.5,15,80z M65,80
	c0,5.5,4.5,10,10,10c5.5,0,10-4.5,10-10c0-5.5-4.5-10-10-10C69.5,70,65,74.5,65,80z M32.7,56.4l55.3-15.8c1.1-0.3,1.9-1.4,1.9-2.5
	V10.5H19.5V2c0-1.1-0.9-2-2-2H2C0.9,0,0,0.9,0,2v8h9.7l9.8,45.3l0.9,4.7v7.5c0,1.1,0.9,2,2,2H25h50h13c1.1,0,2-0.9,2-2V60H33.8
	C28,60,27.9,57.7,32.7,56.4z"/>
</svg>
