<?xml version="1.0" encoding="utf-8"?>
<!-- Generator: Adobe Illustrator 19.0.0, SVG Export Plug-In . SVG Version: 6.00 Build 0)  -->
<svg version="1.1" id="All_glyphs" xmlns="http://www.w3.org/2000/svg" xmlns:xlink="http://www.w3.org/1999/xlink" x="0px" y="0px"
	 viewBox="0 0 101 100.5" style="enable-background:new 0 0 101 100.5;" xml:space="preserve">
<style type="text/css">
	.st0{fill:#F39C12;}
</style>
<path class="st0" d="M50.2,2.5c-26.5,0-48,21.5-48,48c0,26.5,21.5,48,48,48c26.5,0,48-21.5,48-48C98.2,24,76.7,2.5,50.2,2.5z
	 M53.4,61.9c-3.1-0.2-4.4-1.8-6.8-3.2c-1.3,7-2.9,13.6-7.7,17.1c-1.5-10.5,2.2-18.4,3.9-26.8c-2.9-4.9,0.3-14.7,6.5-12.3
	c7.5,3-6.5,18.1,2.9,20c9.8,2,13.8-17.1,7.7-23.2c-8.8-8.9-25.6-0.2-23.6,12.6c0.5,3.1,3.7,4.1,1.3,8.4c-5.6-1.2-7.3-5.7-7.1-11.6
	c0.3-9.7,8.7-16.5,17.1-17.4c10.6-1.2,20.6,3.9,22,13.9C71.1,50.5,64.8,62.7,53.4,61.9z"/>
</svg>
