<?xml version="1.0" encoding="utf-8"?>
<!-- Generator: Adobe Illustrator 19.0.0, SVG Export Plug-In . SVG Version: 6.00 Build 0)  -->
<svg version="1.1" id="All_glyphs" xmlns="http://www.w3.org/2000/svg" xmlns:xlink="http://www.w3.org/1999/xlink" x="0px" y="0px"
	 viewBox="0 0 100 100.5" style="enable-background:new 0 0 100 100.5;" xml:space="preserve">
<style type="text/css">
	.st0{fill:#F39C12;}
</style>
<path class="st0" d="M50.2,2.5c-26.5,0-48,21.5-48,48c0,26.5,21.5,48,48,48c26.5,0,48-21.5,48-48C98.2,24,76.7,2.5,50.2,2.5z
	 M63.1,71.2c-2,0.9-3.7,1.6-5.3,2c-1.6,0.4-3.3,0.6-5.2,0.6c-2.1,0-4-0.3-5.6-0.8c-1.6-0.5-3-1.3-4.1-2.3c-1.1-1-1.9-2.1-2.4-3.2
	c-0.4-1.1-0.7-2.7-0.7-4.9V46.3h-5.1v-6.6c1.8-0.6,3.3-1.4,4.6-2.6c1.3-1.1,2.3-2.4,3.1-4c0.8-1.6,1.3-3.5,1.6-5.9h6.5V39h10.9v7.3
	H50.7v11.9c0,2.7,0.1,4.4,0.4,5.2c0.3,0.8,0.8,1.4,1.6,1.8c1,0.6,2.2,0.9,3.5,0.9c2.3,0,4.6-0.8,6.9-2.3V71.2z"/>
</svg>
