<?xml version="1.0" encoding="utf-8"?>
<!-- Generator: Adobe Illustrator 19.0.0, SVG Export Plug-In . SVG Version: 6.00 Build 0)  -->
<svg version="1.1" id="All_glyphs" xmlns="http://www.w3.org/2000/svg" xmlns:xlink="http://www.w3.org/1999/xlink" x="0px" y="0px"
	 viewBox="0 0 106.5 103.5" style="enable-background:new 0 0 106.5 103.5;" xml:space="preserve">
<style type="text/css">
	.st0{fill:#E89606;}
</style>
<g>
	<path class="st0" d="M80.6,73c-12.3-4.5-16.3-8.3-16.3-16.4c0-4.9,3.8-3.3,5.4-12.2c0.7-3.7,4-0.1,4.6-8.5c0-3.4-1.8-4.2-1.8-4.2
		s0.9-5,1.3-8.8C74.3,18.1,71.1,5.8,54,5.8S33.7,18.1,34.2,22.9c0.4,3.8,1.3,8.8,1.3,8.8s-1.8,0.8-1.8,4.2c0.6,8.4,4,4.8,4.6,8.5
		c1.7,8.9,5.4,7.3,5.4,12.2c0,8.1-3.9,11.9-16.3,16.4C15.1,77.6,7,82.1,7,85.3c0,3.1,0,10.5,0,10.5h47h47c0,0,0-7.4,0-10.5
		C101,82.1,93,77.6,80.6,73z"/>
</g>
</svg>
